<?xml version="1.0" standalone="no"?>
<!DOCTYPE svg PUBLIC "-//W3C//DTD SVG 20010904//EN"
 "http://www.w3.org/TR/2001/REC-SVG-20010904/DTD/svg10.dtd">
<svg version="1.0" xmlns="http://www.w3.org/2000/svg"
 width="500.000000pt" height="160.000000pt" viewBox="0 0 500.000000 160.000000"
 preserveAspectRatio="xMidYMid meet">

<g transform="translate(0.000000,160.000000) scale(0.100000,-0.100000)"
fill="#000000" stroke="none">
<path d="M800 1478 c-18 -13 -43 -36 -54 -51 -21 -28 -21 -38 -24 -637 -4
-685 -7 -655 71 -711 l40 -29 457 0 457 0 34 23 c18 12 44 38 56 56 l23 34 0
513 0 512 -32 39 c-18 21 -88 91 -155 156 l-122 117 -359 0 c-356 0 -359 0
-392 -22z m690 -120 c1 -156 84 -236 236 -226 l64 4 0 -476 c0 -539 3 -514
-81 -531 -53 -10 -740 -10 -823 0 -40 5 -63 13 -72 26 -12 15 -14 127 -14 620
l0 602 23 20 c12 11 29 23 37 26 8 3 153 6 323 6 l307 1 0 -72z m158 -61 c39
-40 72 -76 72 -81 0 -18 -91 2 -116 25 -31 30 -60 129 -36 129 4 0 40 -33 80
-73z"/>
<path d="M1166 1150 c-35 -11 -62 -35 -92 -82 -13 -21 -37 -44 -52 -52 -39
-20 -61 -56 -72 -118 -6 -29 -22 -69 -36 -89 -56 -82 -52 -168 11 -248 19 -24
35 -53 35 -65 0 -29 33 -80 66 -102 15 -11 46 -38 68 -60 23 -23 51 -47 63
-53 29 -15 106 -14 121 1 9 9 12 119 12 435 0 407 -1 423 -19 433 -23 12 -64
12 -105 0z m64 -114 c0 -29 -3 -81 -6 -114 -6 -55 -9 -60 -25 -52 -28 16 -95
12 -110 -6 -22 -27 1 -49 54 -49 31 0 53 -7 68 -20 22 -20 22 -22 15 -239 -4
-121 -9 -222 -11 -225 -12 -11 -57 22 -71 52 -10 21 -32 42 -62 57 -35 19 -48
32 -50 51 -3 22 2 29 30 38 44 15 78 49 78 78 0 35 -26 39 -61 9 -60 -51 -127
-19 -136 66 -5 38 -1 49 29 89 26 33 36 59 41 98 7 59 26 87 74 107 22 9 35
24 43 49 13 39 43 65 77 65 21 0 23 -4 23 -54z"/>
<path d="M1359 1143 c-11 -13 -14 -94 -14 -428 0 -472 -4 -450 80 -443 59 5
104 34 131 84 11 19 36 48 56 65 46 37 63 67 84 155 25 106 29 188 10 225 -9
18 -16 48 -16 68 -1 49 -31 112 -68 142 -17 13 -45 43 -62 67 -50 70 -166 107
-201 65z m141 -173 c11 -11 20 -31 20 -44 0 -33 -37 -76 -65 -76 -34 0 -38 14
-14 44 11 14 20 38 19 54 -4 50 6 56 40 22z m14 -224 c37 -16 62 -62 52 -101
-9 -35 -22 -31 -51 15 -18 28 -35 42 -56 47 -38 7 -47 22 -24 40 24 16 37 16
79 -1z m-21 -248 c18 -24 19 -31 8 -54 l-12 -27 -19 30 c-10 17 -23 34 -29 37
-6 4 -11 16 -11 27 0 29 38 21 63 -13z"/>
<path d="M2274 1141 c-44 -27 -64 -59 -64 -102 0 -54 35 -90 119 -123 71 -28
93 -48 83 -76 -15 -48 -81 -54 -121 -11 -21 22 -34 29 -52 25 -52 -12 -52 -12
-28 -53 47 -85 197 -96 264 -21 15 16 20 36 20 77 0 49 -3 58 -32 83 -18 16
-52 34 -75 40 -60 16 -88 36 -88 64 0 35 23 49 65 42 25 -5 39 -15 48 -33 10
-22 16 -24 45 -19 45 7 46 9 28 48 -24 47 -57 67 -123 74 -47 4 -64 2 -89 -15z"/>
<path d="M2590 951 l0 -211 39 0 38 0 7 61 c3 34 6 94 6 133 l1 71 50 -97 c46
-88 54 -98 79 -98 34 0 42 10 96 113 l43 82 1 -132 0 -133 40 0 40 0 0 203 c0
112 -2 206 -4 208 -3 2 -24 3 -48 1 l-43 -4 -55 -105 c-30 -59 -59 -106 -65
-106 -5 1 -35 50 -67 109 l-57 109 -50 3 -51 3 0 -210z"/>
<path d="M3259 1138 c-5 -10 -41 -100 -80 -200 -39 -101 -73 -187 -76 -191 -3
-5 16 -7 42 -5 46 3 48 4 65 48 20 52 31 55 126 45 61 -6 61 -6 73 -46 14 -45
24 -52 74 -47 l34 3 -78 200 -78 200 -46 6 c-38 4 -48 2 -56 -13z m101 -220
c0 -5 -22 -8 -50 -8 -27 0 -50 3 -50 8 0 8 39 112 47 126 5 8 52 -106 53 -126z"/>
<path d="M3580 950 l0 -210 40 0 40 0 0 75 0 75 34 0 c32 0 36 -4 73 -75 l38
-75 48 0 c26 0 47 2 47 5 0 3 -20 40 -45 82 l-44 76 25 19 c58 46 69 125 25
187 -26 36 -85 51 -201 51 l-80 0 0 -210z m198 114 c26 -18 30 -65 6 -85 -8
-7 -40 -14 -70 -17 l-54 -4 0 61 0 61 48 0 c27 0 57 -7 70 -16z"/>
<path d="M3950 1120 l0 -40 65 0 65 0 0 -170 0 -170 40 0 40 0 0 170 0 170 66
0 65 0 -3 38 -3 37 -167 3 -168 2 0 -40z"/>
<path d="M2266 539 c-61 -17 -84 -69 -51 -116 8 -12 38 -29 66 -38 54 -18 69
-36 48 -61 -14 -17 -54 -12 -80 12 -20 18 -59 18 -59 0 0 -7 12 -25 26 -40 22
-22 36 -26 80 -26 59 0 88 19 100 65 7 30 -17 72 -49 85 -12 4 -37 14 -54 20
-37 14 -45 45 -13 55 21 7 60 -10 60 -25 0 -16 40 -11 47 6 8 21 -32 61 -66
66 -15 2 -40 1 -55 -3z"/>
<path d="M2480 430 c0 -104 1 -112 25 -135 34 -35 112 -35 152 -1 27 23 28 28
31 135 l4 111 -31 0 -31 0 0 -98 c0 -107 -6 -122 -52 -122 -38 0 -48 29 -48
136 0 83 0 84 -25 84 l-25 0 0 -110z"/>
<path d="M2780 405 l0 -135 25 0 c25 0 25 1 25 80 0 44 3 80 8 80 4 0 18 -21
32 -48 36 -68 57 -67 97 5 l33 58 0 -87 0 -88 30 0 30 0 0 135 0 135 -38 0
c-37 0 -39 -2 -71 -67 -26 -52 -36 -65 -43 -53 -5 8 -22 39 -39 68 -25 44 -34
52 -59 52 l-30 0 0 -135z"/>
<path d="M3140 405 l0 -135 30 0 30 0 1 83 0 82 27 -52 c37 -74 61 -73 101 5
l30 57 1 -88 0 -88 28 3 27 3 3 133 3 132 -39 0 c-37 0 -39 -1 -72 -71 l-34
-70 -35 70 c-33 66 -37 71 -68 71 l-33 0 0 -135z"/>
<path d="M3596 532 c-17 -28 -95 -245 -90 -253 12 -21 46 -8 57 21 11 28 15
30 65 30 50 0 54 -2 63 -30 9 -24 17 -30 41 -30 34 0 36 -12 -26 150 -42 109
-46 115 -74 118 -17 2 -33 -1 -36 -6z m48 -96 c3 -13 9 -31 12 -40 5 -13 -1
-16 -25 -16 -34 0 -36 3 -20 49 13 37 25 40 33 7z"/>
<path d="M3810 406 l0 -136 25 0 c23 0 25 4 25 45 0 40 2 45 23 45 16 0 29
-12 47 -45 18 -32 31 -45 47 -45 33 0 35 14 9 60 l-24 42 24 25 c29 32 31 82
5 114 -17 21 -30 24 -100 27 l-81 4 0 -136z m138 55 c4 -28 -20 -51 -54 -51
-24 0 -34 17 -34 56 0 23 3 25 43 22 36 -3 42 -6 45 -27z"/>
<path d="M4050 534 c0 -3 20 -45 45 -93 32 -63 45 -100 45 -129 0 -38 2 -42
25 -42 23 0 25 4 25 48 0 36 10 65 45 131 25 45 45 85 45 87 0 2 -13 4 -30 4
-26 0 -33 -7 -59 -57 l-29 -58 -28 58 c-24 49 -32 57 -56 57 -15 0 -28 -3 -28
-6z"/>
</g>
</svg>
