 <svg  version="1.0" xmlns="http://www.w3.org/2000/svg"  width="300.000000pt" height="130.000000pt" viewBox="0 0 300.000000 130.000000"  preserveAspectRatio="xMidYMid meet">  <g transform="translate(0.000000,130.000000) scale(0.100000,-0.100000)" fill="#257fdf" stroke="none"> <path d="M211 1182 c-19 -9 -44 -30 -55 -45 -20 -28 -21 -41 -24 -500 -3 -527 -4 -517 68 -565 l34 -23 352 3 c338 3 354 4 381 24 62 46 63 50 63 475 0 373 -1 387 -20 412 -31 39 -107 117 -177 180 l-63 57 -262 0 c-231 0 -267 -2 -297 -18z m539 -132 c0 -83 2 -93 25 -115 22 -23 32 -25 107 -25 l83 0 -1 -368 c-1 -203 -4 -377 -8 -389 -13 -40 -42 -43 -376 -43 -338 0 -359 3 -379 47 -8 16 -11 166 -11 474 l0 451 29 29 29 29 251 0 251 0 0 -90z m55 65 c0 -27 103 -135 128 -135 11 0 29 -7 39 -17 23 -21 24 -46 1 -39 -10 3 -31 8 -47 12 l-30 7 25 11 c22 9 20 11 -21 13 -85 6 -90 9 -90 53 0 22 -9 54 -20 72 -25 41 -25 50 -2 46 9 -2 17 -12 17 -23z"/> <path d="M385 835 c-70 -69 -85 -90 -85 -115 0 -19 -11 -45 -29 -68 -16 -20 -32 -49 -35 -64 -8 -33 12 -85 43 -112 11 -11 21 -29 21 -42 0 -40 23 -75 62 -95 21 -11 44 -32 53 -48 23 -45 53 -61 112 -61 l53 0 0 345 0 345 -55 0 -56 0 -84 -85z m145 -62 l0 -86 -45 5 c-48 6 -72 -9 -61 -37 4 -11 20 -15 56 -15 l50 0 0 -181 0 -180 -22 3 c-14 2 -31 18 -46 44 -16 30 -34 47 -62 58 -50 20 -55 51 -10 60 40 7 82 50 78 78 -4 30 -24 33 -45 8 -39 -48 -99 -44 -122 7 -14 30 -6 60 22 90 11 12 25 44 32 70 9 36 20 54 46 71 19 13 41 37 50 55 9 17 25 34 35 38 38 13 44 1 44 -88z"/> <path d="M632 578 l3 -343 48 -3 c43 -3 51 0 82 31 19 19 35 44 35 55 0 13 12 28 30 38 35 21 63 74 59 112 -2 15 4 38 14 52 21 31 22 89 1 119 -9 13 -17 40 -18 61 -2 43 -29 90 -56 97 -11 3 -22 18 -25 34 -4 15 -22 42 -41 59 -29 25 -43 30 -84 30 l-50 0 2 -342z m112 288 c15 -13 26 -29 26 -35 0 -6 18 -31 40 -55 28 -30 43 -56 46 -83 3 -21 13 -53 21 -72 14 -31 14 -39 -1 -80 -9 -25 -16 -59 -16 -76 0 -19 -11 -40 -32 -62 -36 -37 -48 -41 -48 -15 0 9 -9 28 -19 41 -16 21 -24 23 -60 18 -45 -6 -42 -10 -42 68 0 164 3 219 11 198 5 -12 21 -25 36 -29 22 -6 32 -2 51 20 31 36 30 71 -3 93 -30 19 -52 11 -69 -25 -5 -12 -13 -22 -17 -22 -9 0 -11 101 -2 124 9 23 49 19 78 -8z m8 -102 c11 -23 10 -29 -11 -45 -13 -11 -29 -19 -37 -19 -16 0 -19 26 -4 35 6 3 10 17 10 31 0 32 27 31 42 -2z m-7 -354 c15 -17 16 -24 7 -45 -15 -32 -42 -33 -42 -1 0 13 -7 26 -15 30 -8 3 -15 12 -15 21 0 22 43 19 65 -5z m-9 -90 c36 4 37 0 5 -31 -20 -19 -40 -29 -54 -27 -19 3 -22 10 -25 58 l-3 55 29 -28 c17 -16 38 -28 48 -27z"/> <path d="M706 595 c-17 -17 -11 -43 19 -89 24 -36 43 -39 71 -11 31 31 31 59 -1 90 -27 28 -66 32 -89 10z m65 -15 c26 -14 26 -66 0 -80 -21 -10 -37 1 -27 19 3 5 -3 20 -14 33 -27 36 -4 51 41 28z"/> <path d="M1354 920 c-31 -12 -64 -59 -64 -90 0 -41 30 -71 96 -96 66 -24 85 -44 68 -72 -18 -29 -68 -27 -92 3 -17 22 -27 26 -51 20 -36 -8 -33 -30 10 -71 24 -23 38 -28 83 -28 67 -1 107 25 120 76 14 56 -15 98 -84 121 -30 10 -60 23 -67 29 -22 18 -15 47 13 54 31 8 74 -10 74 -31 0 -16 36 -20 58 -6 12 7 11 14 -3 40 -25 50 -103 75 -161 51z"/> <path d="M1600 758 l0 -168 33 0 32 0 -3 117 -3 118 44 -80 c35 -65 48 -81 69 -83 24 -3 31 5 70 81 24 47 38 83 31 80 -19 -8 -16 21 5 40 26 24 29 22 34 -17 3 -27 0 -36 -14 -39 -16 -5 -18 -18 -18 -111 l0 -106 35 0 35 0 0 165 0 165 -40 0 c-37 0 -41 -3 -64 -47 -13 -27 -35 -67 -49 -91 l-24 -43 -47 89 c-45 88 -47 90 -86 94 l-40 4 0 -168z m74 100 c15 -21 15 -23 -6 -31 -12 -4 -26 -13 -30 -20 -4 -7 -8 7 -8 31 0 48 19 57 44 20z"/> <path d="M2660 893 c0 -33 0 -33 50 -33 l50 0 0 -135 0 -135 33 0 32 0 -3 135 -4 135 51 0 c50 0 51 1 51 29 l0 30 -130 3 -130 3 0 -32z m150 -7 c0 -2 -3 -12 -6 -20 -5 -13 -9 -14 -20 -5 -20 16 -17 29 6 29 11 0 20 -2 20 -4z"/> <path d="M2067 773 c-31 -81 -59 -156 -63 -165 -5 -15 0 -18 30 -18 32 0 36 3 47 40 l12 40 68 0 68 0 12 -40 c11 -37 15 -40 50 -40 l37 0 -40 103 c-22 56 -50 129 -63 162 -22 58 -24 60 -62 63 l-39 3 -57 -148z m118 97 c3 -5 0 -10 -9 -10 -8 0 -22 -3 -30 -6 -12 -5 -15 -2 -10 10 7 18 39 22 49 6z m14 -117 c11 -22 10 -23 -34 -23 -25 0 -45 2 -45 4 0 4 26 80 36 106 4 10 10 1 18 -25 7 -22 18 -50 25 -62z m-94 -56 c-23 -13 -36 1 -22 24 11 18 13 18 25 2 10 -14 9 -19 -3 -26z m144 11 c11 -29 8 -32 -18 -19 -12 7 -18 17 -15 26 9 22 23 18 33 -7z"/> <path d="M2370 755 l0 -165 36 0 35 0 -2 63 c-3 60 -2 62 21 62 19 0 32 -13 60 -62 33 -59 37 -63 72 -63 l37 0 -39 67 -39 68 24 13 c54 28 62 106 16 153 -28 28 -33 29 -125 29 l-96 0 0 -165z m178 70 c5 -37 -19 -55 -69 -55 -37 0 -37 0 -41 45 l-3 46 55 -3 c53 -3 55 -4 58 -33z m-124 -63 c15 -18 15 -20 -4 -37 -20 -18 -20 -18 -20 18 0 43 1 43 24 19z"/> <path d="M1355 442 c-32 -6 -55 -33 -55 -62 0 -32 13 -45 66 -64 27 -9 39 -19 39 -32 0 -24 -37 -30 -58 -10 -16 16 -57 22 -57 8 0 -21 34 -52 63 -57 73 -14 127 43 89 94 -10 14 -37 31 -61 39 -23 8 -40 19 -38 26 6 17 56 20 63 3 6 -17 44 -11 44 8 0 28 -55 55 -95 47z"/> <path d="M1501 354 c4 -79 6 -87 32 -110 16 -13 41 -24 57 -24 16 0 41 11 57 24 26 23 28 31 32 110 l3 86 -26 0 c-25 0 -25 -1 -28 -81 -2 -65 -7 -84 -20 -93 -13 -8 -23 -8 -35 0 -14 9 -19 28 -21 93 -3 80 -3 81 -28 81 l-26 0 3 -86z"/> <path d="M1740 335 l0 -105 26 0 27 0 -7 65 c-4 36 -3 65 1 65 4 0 16 -18 25 -40 23 -56 49 -54 76 8 l21 47 1 -72 c0 -71 1 -73 25 -73 l25 0 0 105 0 105 -30 0 c-26 0 -33 -7 -56 -51 l-26 -52 -24 43 c-13 23 -24 46 -24 51 0 5 -13 9 -30 9 l-30 0 0 -105z"/> <path d="M2028 336 c3 -92 5 -105 22 -109 17 -4 19 2 22 67 l3 71 19 -42 c24 -57 47 -56 80 3 14 25 23 51 19 57 -3 6 -1 7 6 3 6 -4 10 -15 7 -24 -2 -10 -7 -43 -11 -74 -6 -57 -6 -58 19 -58 l26 0 0 105 0 105 -27 0 c-23 -1 -32 -9 -52 -50 -13 -28 -27 -50 -30 -50 -3 0 -16 23 -28 50 -19 43 -26 50 -50 50 l-28 0 3 -104z"/> <path d="M2376 432 c-9 -14 -76 -192 -76 -201 0 -20 49 3 54 25 6 21 12 24 50 24 38 0 45 -3 50 -24 4 -15 15 -25 31 -28 14 -3 25 -2 25 1 0 3 -18 51 -39 106 -34 86 -43 100 -64 103 -14 2 -28 -1 -31 -6z m42 -79 c10 -31 10 -33 -14 -33 -27 0 -29 6 -14 46 12 31 13 30 28 -13z"/> <path d="M2550 335 l0 -105 25 0 c23 0 25 4 25 40 0 55 23 52 53 -6 10 -19 26 -33 42 -36 30 -6 30 -7 3 43 -16 27 -20 42 -12 47 13 9 34 46 34 62 0 6 -11 22 -25 35 -20 21 -34 25 -85 25 l-60 0 0 -105z m116 50 c9 -21 -14 -45 -42 -45 -20 0 -24 5 -24 30 0 27 3 30 30 30 18 0 33 -6 36 -15z"/> <path d="M2740 436 c0 -2 16 -32 35 -66 23 -41 35 -75 35 -101 0 -34 3 -39 23 -39 20 0 23 4 19 34 -2 19 2 44 11 57 8 13 26 45 41 72 l27 47 -25 0 c-20 0 -31 -10 -49 -45 l-23 -46 -22 46 c-17 36 -27 45 -47 45 -14 0 -25 -2 -25 -4z"/> </g> </svg> 