<?xml version="1.0" standalone="no"?>
<!DOCTYPE svg PUBLIC "-//W3C//DTD SVG 20010904//EN"
 "http://www.w3.org/TR/2001/REC-SVG-20010904/DTD/svg10.dtd">
<svg version="1.0" xmlns="http://www.w3.org/2000/svg"
 width="1024.000000pt" height="352.000000pt" viewBox="0 0 1024.000000 352.000000"
 preserveAspectRatio="xMidYMid meet">

<g transform="translate(0.000000,352.000000) scale(0.100000,-0.100000)"
fill="#000000" stroke="none">
<path d="M1698 3245 c-103 -28 -170 -85 -217 -185 l-26 -55 0 -1210 0 -1210
27 -58 c15 -32 31 -56 36 -53 5 3 26 -14 48 -37 l39 -42 -42 40 c-24 21 -43
34 -43 28 0 -19 81 -85 139 -112 l56 -26 845 -3 c883 -3 910 -2 993 40 42 21
117 85 117 100 0 5 -5 6 -12 2 -7 -4 -8 -3 -4 5 4 6 11 9 16 6 12 -7 36 35 54
95 14 47 16 167 16 1029 0 618 -4 989 -10 1011 -7 23 -42 67 -107 132 -53 53
-99 95 -103 93 -7 -4 -166 153 -162 160 7 14 0 26 -12 22 -8 -3 -26 9 -42 26
l-29 32 35 -30 c19 -16 -8 15 -60 68 -87 91 -150 137 -182 137 -9 0 -9 -3 2
-10 13 -8 12 -10 -2 -10 -10 0 -18 7 -18 15 0 13 -79 15 -652 14 -503 -1 -664
-4 -700 -14z m1030 -2 c-174 -2 -462 -2 -640 0 -178 1 -35 2 317 2 352 0 497
-1 323 -2z m-975 -10 c-7 -2 -21 -2 -30 0 -10 3 -4 5 12 5 17 0 24 -2 18 -5z
m-56 -9 c-3 -3 -12 -4 -19 -1 -8 3 -5 6 6 6 11 1 17 -2 13 -5z m-105 -50 c-46
-36 -88 -101 -106 -166 -15 -49 -16 -174 -14 -1234 3 -1106 4 -1182 21 -1224
10 -25 14 -40 9 -35 -37 40 -37 47 -40 1259 -3 1299 -5 1239 59 1332 27 40 83
94 97 94 4 0 -8 -12 -26 -26z m1648 -59 c19 -19 32 -35 29 -35 -3 0 -20 16
-39 35 -19 19 -32 35 -29 35 3 0 20 -16 39 -35z m-1322 -2 c-16 -2 -40 -2 -55
0 -16 2 -3 4 27 4 30 0 43 -2 28 -4z m119 1 c-3 -3 -12 -4 -19 -1 -8 3 -5 6 6
6 11 1 17 -2 13 -5z m101 -1 c-15 -2 -42 -2 -60 0 -18 2 -6 4 27 4 33 0 48 -2
33 -4z m135 0 c-7 -2 -21 -2 -30 0 -10 3 -4 5 12 5 17 0 24 -2 18 -5z m44 1
c-3 -3 -12 -4 -19 -1 -8 3 -5 6 6 6 11 1 17 -2 13 -5z m40 0 c-3 -3 -12 -4
-19 -1 -8 3 -5 6 6 6 11 1 17 -2 13 -5z m56 -1 c-7 -2 -21 -2 -30 0 -10 3 -4
5 12 5 17 0 24 -2 18 -5z m74 1 c-3 -3 -12 -4 -19 -1 -8 3 -5 6 6 6 11 1 17
-2 13 -5z m101 -1 c-10 -2 -28 -2 -40 0 -13 2 -5 4 17 4 22 1 32 -1 23 -4z
m110 0 c-16 -2 -40 -2 -55 0 -16 2 -3 4 27 4 30 0 43 -2 28 -4z m59 1 c-3 -3
-12 -4 -19 -1 -8 3 -5 6 6 6 11 1 17 -2 13 -5z m56 -1 c-7 -2 -21 -2 -30 0
-10 3 -4 5 12 5 17 0 24 -2 18 -5z m95 0 c-10 -2 -28 -2 -40 0 -13 2 -5 4 17
4 22 1 32 -1 23 -4z m114 -225 c3 -208 4 -214 28 -255 59 -96 112 -113 350
-113 l180 0 0 -950 c0 -913 -1 -952 -19 -988 -23 -46 -46 -67 -94 -87 -32 -13
-143 -15 -872 -15 -729 0 -840 2 -872 15 -48 20 -70 41 -97 90 l-21 40 -3
1148 c-2 787 1 1161 8 1188 6 22 25 55 41 74 35 39 29 47 -10 13 l-26 -23 20
23 c22 26 63 52 51 33 -9 -14 -5 -14 35 4 29 12 134 14 666 15 l632 0 3 -212z
m15 -90 c-1 -51 -3 -10 -3 92 0 102 2 143 3 93 2 -51 2 -135 0 -185z m-1434
190 c-4 -7 -10 -539 -13 -1183 l-5 -1170 0 1170 c0 644 4 1176 8 1183 5 6 10
12 13 12 3 0 2 -6 -3 -12z m1554 -165 c-2 -32 -3 -6 -3 57 0 63 1 89 3 58 2
-32 2 -84 0 -115z m118 74 c4 5 5 3 2 -3 -3 -6 41 -57 98 -114 58 -57 104
-104 103 -105 -2 -1 -61 1 -131 4 -121 6 -129 7 -147 31 -25 33 -30 65 -30
178 l0 96 48 -47 c27 -26 52 -44 57 -40z m-39 52 c20 -22 23 -28 8 -19 -18 11
-50 50 -41 50 2 0 16 -14 33 -31z m349 -179 c27 -27 47 -50 44 -50 -3 0 -27
23 -54 50 -27 28 -47 50 -44 50 3 0 27 -22 54 -50z m-374 -84 c13 -9 18 -16
12 -16 -16 0 -63 58 -63 78 1 9 7 3 14 -14 8 -17 24 -39 37 -48z m450 7 c13
-16 12 -17 -3 -4 -10 7 -18 15 -18 17 0 8 8 3 21 -13z m-579 -72 c12 -19 16
-31 10 -27 -15 9 -52 80 -51 98 0 7 5 2 10 -11 5 -14 20 -41 31 -60z m185 43
c-3 -3 -12 -4 -19 -1 -8 3 -5 6 6 6 11 1 17 -2 13 -5z m130 -10 c-3 -3 -12 -4
-19 -1 -8 3 -5 6 6 6 11 1 17 -2 13 -5z m319 -39 c9 -39 0 -30 -15 15 -6 19
-7 30 -2 25 5 -6 13 -23 17 -40z m4 -2002 l-10 -38 5 40 c3 22 6 474 7 1005
l3 965 2 -967 c2 -613 -1 -980 -7 -1005z m-482 1926 l47 -8 -48 3 c-27 2 -54
9 -60 16 -9 10 -9 11 1 6 7 -4 34 -12 60 -17z m359 -1452 c-1 -260 -2 -44 -2
478 0 523 1 735 2 472 2 -263 2 -691 0 -950z m-1984 -499 c9 -21 14 -38 11
-38 -5 0 -34 64 -34 76 0 12 7 0 23 -38z m1964 -25 c-8 -15 -25 -37 -38 -48
-20 -17 -20 -16 3 12 15 18 30 42 33 54 4 11 9 18 12 16 2 -3 -2 -18 -10 -34z
m133 -6 c0 -7 -7 -22 -15 -33 -13 -17 -13 -16 -3 14 13 34 18 40 18 19z
m-2055 -37 c10 -11 16 -20 13 -20 -3 0 -13 9 -23 20 -10 11 -16 20 -13 20 3 0
13 -9 23 -20z m1550 -53 c132 -1 -142 -3 -610 -5 -467 -1 -855 2 -862 6 -10 6
861 6 1472 -1z m435 -27 c0 -5 -5 -10 -11 -10 -5 0 -7 5 -4 10 3 6 8 10 11 10
2 0 4 -4 4 -10z m-35 -30 c-3 -5 -16 -15 -28 -21 -19 -9 -19 -8 3 10 28 23 34
26 25 11z m-1903 -51 c8 0 8 -2 2 -5 -12 -5 -80 21 -88 35 -4 5 12 1 33 -10
22 -10 46 -19 53 -20z m55 -15 c-3 -3 -12 -4 -19 -1 -8 3 -5 6 6 6 11 1 17 -2
13 -5z m176 -1 c-13 -2 -35 -2 -50 0 -16 2 -5 4 22 4 28 0 40 -2 28 -4z m54 1
c-3 -3 -12 -4 -19 -1 -8 3 -5 6 6 6 11 1 17 -2 13 -5z m101 -1 c-15 -2 -42 -2
-60 0 -18 2 -6 4 27 4 33 0 48 -2 33 -4z m105 0 c-13 -2 -35 -2 -50 0 -16 2
-5 4 22 4 28 0 40 -2 28 -4z m275 0 c-15 -2 -42 -2 -60 0 -18 2 -6 4 27 4 33
0 48 -2 33 -4z m205 0 c-29 -2 -78 -2 -110 0 -32 2 -8 3 52 3 61 0 87 -1 58
-3z m315 0 c-27 -2 -69 -2 -95 0 -27 2 -5 3 47 3 52 0 74 -1 48 -3z m445 0
c-7 -2 -19 -2 -25 0 -7 3 -2 5 12 5 14 0 19 -2 13 -5z"/>
<path d="M2318 2533 c-66 -22 -119 -71 -171 -158 -42 -70 -50 -103 -13 -52 9
12 15 16 13 8 -2 -8 -19 -26 -38 -40 -19 -14 -28 -18 -20 -8 22 27 -1 20 -66
-22 -92 -59 -136 -134 -148 -253 -3 -36 -13 -74 -20 -85 -20 -25 -18 -38 3
-22 9 7 -3 -8 -28 -34 -44 -47 -58 -58 -44 -34 6 9 4 9 -8 -1 -32 -26 -62
-114 -62 -187 -1 -88 33 -167 103 -240 45 -46 49 -55 55 -113 6 -67 33 -131
74 -174 40 -43 49 -33 9 11 -40 44 -61 80 -53 88 3 3 10 -6 15 -20 6 -14 26
-43 44 -64 19 -21 35 -42 35 -48 0 -5 29 -22 63 -36 62 -25 64 -27 101 -100
42 -83 101 -143 157 -159 20 -6 82 -14 137 -17 94 -5 103 -4 123 16 l21 21 0
851 c0 567 -3 857 -10 870 -10 17 -22 19 -118 18 -69 0 -124 -6 -154 -16z
m260 -5 c9 -9 12 -213 12 -858 0 -751 -2 -848 -16 -866 -15 -18 -15 -18 -5 3
13 26 15 1691 3 1710 -5 8 -43 13 -102 16 l-95 3 96 2 c63 1 99 -2 107 -10z
m-262 -18 c-26 -10 -58 -27 -69 -37 -21 -18 -21 -17 -7 1 16 21 86 56 110 55
8 0 -7 -8 -34 -19z m-119 -94 c-44 -67 -47 -70 -31 -36 15 32 42 70 50 70 2 0
-7 -15 -19 -34z m246 7 c-7 -2 -19 -2 -25 0 -7 3 -2 5 12 5 14 0 19 -2 13 -5z
m-79 -25 c16 4 44 6 62 4 l34 -4 0 -214 0 -214 -115 0 c-132 0 -155 -11 -155
-74 0 -56 25 -66 157 -66 l113 0 0 -461 0 -462 -43 6 c-24 3 -51 9 -62 13 -14
6 -16 4 -10 -7 4 -8 -6 -1 -23 15 -27 26 -69 113 -58 123 2 3 11 -18 20 -45 9
-27 26 -58 38 -68 l20 -19 -20 35 c-11 19 -25 52 -31 72 -7 20 -19 42 -28 50
-14 11 -16 11 -8 -2 5 -8 -9 1 -32 21 -22 20 -64 44 -92 54 -29 9 -50 19 -48
21 9 10 112 -37 139 -63 15 -14 28 -22 28 -16 0 17 -33 41 -95 68 -119 53
-118 51 -130 118 l-7 37 41 0 c88 0 184 58 245 150 36 55 9 120 -52 120 -29 0
-84 -53 -76 -73 3 -9 -7 -24 -28 -39 -37 -28 -72 -43 -63 -28 3 6 11 10 17 10
15 0 68 40 68 52 0 5 -14 -2 -30 -16 -17 -14 -49 -30 -72 -37 -76 -20 -158 31
-196 121 -17 41 -10 121 13 157 9 14 14 27 11 30 -3 3 -15 -14 -26 -38 -11
-24 -20 -37 -20 -29 0 22 39 82 49 76 5 -3 14 1 21 9 7 8 9 15 4 15 -4 0 2 10
14 23 12 13 29 41 37 62 12 32 14 34 10 10 -3 -16 -15 -42 -26 -57 -11 -16
-15 -28 -10 -28 25 0 63 105 76 210 9 71 35 105 114 144 72 37 91 57 134 142
14 27 32 56 41 63 8 7 12 20 9 29 -3 12 -2 13 4 5 6 -8 18 -10 37 -5z m113
-320 c-1 -62 -3 -12 -3 112 0 124 2 174 3 113 2 -62 2 -164 0 -225z m-464 157
c-12 -8 -36 -32 -52 -52 -17 -21 -31 -34 -31 -30 0 12 82 97 93 97 7 0 2 -7
-10 -15z m117 -60 c0 -2 -10 -9 -22 -15 -22 -11 -22 -10 -4 4 21 17 26 19 26
11z m-213 -65 c-7 -17 -13 -26 -15 -21 -3 10 15 51 22 51 3 0 -1 -14 -7 -30z
m136 10 c-10 -11 -19 -20 -21 -20 -1 0 2 9 8 20 6 11 15 20 20 20 6 0 2 -9 -7
-20z m-156 -112 c-2 -13 -4 -3 -4 22 0 25 2 35 4 23 2 -13 2 -33 0 -45z m110
0 c-3 -8 -6 -5 -6 6 -1 11 2 17 5 13 3 -3 4 -12 1 -19z m-125 -80 c-6 -6 -7 0
-4 19 5 21 7 23 10 9 2 -10 0 -22 -6 -28z m348 17 c-7 -8 -16 -30 -20 -48 l-8
-32 -1 29 c-1 16 6 38 16 48 19 22 31 24 13 3z m223 8 c-7 -2 -21 -2 -30 0
-10 3 -4 5 12 5 17 0 24 -2 18 -5z m-213 -103 c0 -5 -2 -10 -4 -10 -3 0 -8 5
-11 10 -3 6 -1 10 4 10 6 0 11 -4 11 -10z m235 -947 c-2 -8 -20 -12 -42 -11
l-38 1 38 4 37 4 2 467 3 467 3 -460 c1 -253 0 -466 -3 -472z m-707 882 c-6
-14 -13 -23 -15 -21 -5 5 15 46 22 46 3 0 -1 -11 -7 -25z m-29 -91 c-11 -48
-6 -96 15 -159 5 -12 2 -11 -7 5 -23 40 -30 106 -17 161 7 27 14 48 16 46 3
-2 -1 -26 -7 -53z m108 -81 c-3 -10 -5 -2 -5 17 0 19 2 27 5 18 2 -10 2 -26 0
-35z m16 -43 c3 -11 1 -18 -4 -14 -5 3 -9 12 -9 20 0 20 7 17 13 -6z m444 -41
c1 -19 1 -20 -4 -4 -2 11 -15 28 -26 39 l-22 18 25 -14 c14 -9 26 -26 27 -39z
m-67 34 c-8 -3 -24 -13 -35 -22 -20 -16 -20 -16 -1 7 11 12 26 22 35 21 14 0
14 -1 1 -6z m-466 -69 c3 -8 2 -12 -4 -9 -6 3 -10 10 -10 16 0 14 7 11 14 -7z
m517 -17 c-10 -9 -11 -8 -5 6 3 10 9 15 12 12 3 -3 0 -11 -7 -18z m-321 -17
c19 -11 31 -19 25 -19 -5 0 -26 8 -45 19 -19 11 -30 19 -25 19 6 0 26 -8 45
-19z m-165 -10 c16 -17 16 -20 3 -15 -9 4 -19 13 -22 21 -7 19 -2 18 19 -6z
m475 7 c0 -2 -10 -12 -22 -23 l-23 -19 19 23 c18 21 26 27 26 19z m-233 -23
c-3 -3 -12 -4 -19 -1 -8 3 -5 6 6 6 11 1 17 -2 13 -5z m173 -38 c0 -2 -8 -10
-17 -17 -16 -13 -17 -12 -4 4 13 16 21 21 21 13z m-333 -103 c-3 -10 -5 -4 -5
12 0 17 2 24 5 18 2 -7 2 -21 0 -30z m120 5 c-3 -8 -6 -5 -6 6 -1 11 2 17 5
13 3 -3 4 -12 1 -19z m-110 -60 c-3 -8 -6 -5 -6 6 -1 11 2 17 5 13 3 -3 4 -12
1 -19z m126 2 c3 -11 1 -18 -4 -14 -5 3 -9 12 -9 20 0 20 7 17 13 -6z m176
-325 c0 -5 -8 6 -19 25 -11 19 -19 40 -19 45 0 6 8 -6 19 -25 11 -19 19 -39
19 -45z m31 -40 c14 -19 14 -19 -2 -6 -10 7 -18 18 -18 24 0 6 1 8 3 6 1 -2 9
-13 17 -24z m85 -65 c3 -6 -1 -7 -9 -4 -18 7 -21 14 -7 14 6 0 13 -4 16 -10z"/>
<path d="M2738 2533 c-17 -18 -18 -74 -18 -870 0 -744 2 -852 15 -863 9 -8 15
-9 15 -2 0 6 -4 14 -10 17 -14 8 -14 1664 0 1699 9 25 12 26 92 24 l83 -2 -75
-3 c-55 -3 -78 -8 -87 -20 -10 -13 -13 -200 -13 -854 0 -836 0 -838 21 -852
14 -11 17 -16 7 -19 -25 -9 72 -20 115 -13 67 10 108 25 101 37 -4 6 -2 8 4 5
15 -10 43 3 35 16 -4 6 -1 7 6 3 28 -18 107 90 131 179 15 53 21 62 56 81 21
11 39 25 39 31 0 6 4 15 9 20 5 5 6 3 2 -4 -13 -23 10 -14 36 14 64 68 96 202
70 296 -6 20 -7 35 -3 33 14 -9 51 25 72 66 29 57 35 133 15 201 -18 61 -61
121 -82 113 -9 -3 -11 2 -7 17 3 12 8 49 10 82 8 112 -60 235 -153 277 -36 16
-43 24 -53 64 -17 66 -43 113 -88 155 -65 63 -115 82 -228 87 -90 4 -102 2
-117 -15z m232 -13 c11 -8 7 -9 -15 -4 -37 8 -45 14 -19 14 10 0 26 -5 34 -10z
m74 -39 c24 -17 51 -42 61 -58 14 -23 9 -20 -26 13 -24 23 -55 48 -69 58 -13
9 -21 16 -17 16 5 0 28 -13 51 -29z m96 -112 c0 -6 -4 -7 -10 -4 -5 3 -10 11
-10 16 0 6 5 7 10 4 6 -3 10 -11 10 -16z m17 -81 c-3 -7 -5 -2 -5 12 0 14 2
19 5 13 2 -7 2 -19 0 -25z m108 -88 c3 -5 -10 -1 -29 11 -20 12 -36 23 -36 25
0 7 58 -25 65 -36z m-279 7 c27 -9 67 -81 60 -107 -3 -11 -9 -30 -12 -41 -4
-14 -2 -19 5 -15 7 5 8 1 4 -10 -4 -11 -8 -13 -11 -6 -2 8 -13 5 -34 -9 -16
-12 -50 -24 -74 -27 -41 -4 -44 -3 -44 20 0 13 8 33 19 44 31 34 41 61 41 112
0 52 2 54 46 39z m-69 -54 c-3 -10 -5 -4 -5 12 0 17 2 24 5 18 2 -7 2 -21 0
-30z m409 -19 c15 -25 25 -46 23 -48 -2 -2 -18 21 -36 50 -17 30 -27 52 -22
49 5 -4 21 -26 35 -51z m-409 -36 c-3 -7 -5 -2 -5 12 0 14 2 19 5 13 2 -7 2
-19 0 -25z m452 -117 c1 -74 -5 -61 -11 24 -3 40 -2 61 3 50 4 -11 8 -44 8
-74z m61 -186 c0 -11 -14 7 -31 40 -7 13 -3 12 10 -5 11 -14 21 -29 21 -35z
m20 -64 c0 -32 -6 -24 -14 19 -4 25 -3 31 4 20 5 -8 10 -26 10 -39z m7 -83
c-2 -13 -4 -5 -4 17 -1 22 1 32 4 23 2 -10 2 -28 0 -40z m-373 30 c-3 -5 2
-11 11 -14 23 -9 45 -57 45 -98 0 -44 -36 -88 -84 -103 l-36 -11 0 46 c0 51
-26 113 -50 120 -10 3 -9 -3 6 -19 23 -27 40 -64 24 -54 -6 3 -10 12 -10 19 0
7 -9 21 -20 31 -11 10 -18 20 -15 23 3 3 -3 14 -12 25 -17 18 -17 19 2 33 21
16 148 17 139 2z m358 -100 c-6 -6 -7 0 -4 19 5 21 7 23 10 9 2 -10 0 -22 -6
-28z m-22 -42 c0 -2 -8 -10 -17 -17 -16 -13 -17 -12 -4 4 13 16 21 21 21 13z
m-413 -43 c-3 -10 -5 -4 -5 12 0 17 2 24 5 18 2 -7 2 -21 0 -30z m110 -18
c-15 -14 -33 -25 -39 -25 -6 0 4 11 23 24 44 32 51 32 16 1z m250 -142 c-2
-21 -4 -6 -4 32 0 39 2 55 4 38 2 -18 2 -50 0 -70z m-373 -52 c-7 -7 28 -41
37 -35 4 2 13 -6 19 -18 11 -23 11 -23 -6 -3 l-17 20 8 -20 c11 -26 11 -64 1
-94 -6 -18 -5 -22 4 -16 9 5 11 4 6 -4 -4 -6 -12 -9 -17 -6 -5 4 -10 1 -10 -4
-1 -6 -2 -15 -3 -20 0 -5 -5 -13 -10 -18 -5 -5 -6 -2 -1 6 5 9 4 12 -4 10 -7
-3 -12 -8 -11 -13 2 -11 -21 -26 -40 -25 -10 0 -8 3 5 9 17 7 17 9 3 9 -14 1
-18 10 -18 42 0 45 -14 79 -33 79 -8 0 -7 -4 3 -11 10 -7 11 -9 2 -7 -8 2 -14
8 -14 13 0 6 -9 21 -19 34 -22 27 -25 67 -6 75 14 6 128 3 121 -3z m356 -29
c0 -5 -7 -17 -15 -28 -14 -18 -14 -17 -4 9 12 27 19 34 19 19z m-42 -72 c-7
-10 -14 -17 -17 -15 -4 4 18 35 25 35 2 0 -1 -9 -8 -20z m-157 -155 c-11 -33
-20 -55 -20 -49 -1 15 30 117 34 112 2 -2 -4 -31 -14 -63z m-40 -103 c-5 -10
-18 -25 -27 -33 -11 -9 -9 -2 6 19 26 35 36 42 21 14z m-198 -129 c-7 -2 -19
-2 -25 0 -7 3 -2 5 12 5 14 0 19 -2 13 -5z"/>
<path d="M1805 1870 c-27 -30 -12 -34 15 -5 13 14 19 25 13 25 -5 0 -18 -9
-28 -20z"/>
<path d="M3440 2915 c41 -41 75 -73 77 -71 4 4 -135 146 -144 146 -4 0 26 -34
67 -75z"/>
<path d="M4634 2560 c-48 -10 -119 -38 -112 -45 2 -2 28 4 56 15 29 11 69 19
90 19 34 -1 33 -2 -13 -9 -27 -4 -67 -15 -88 -23 -21 -9 -44 -14 -51 -11 -16
6 -63 -48 -83 -93 -15 -37 -17 -140 -4 -176 16 -41 71 -97 120 -121 25 -13 90
-38 144 -56 54 -17 112 -44 128 -58 29 -24 31 -29 27 -81 -5 -53 -4 -54 8 -26
7 17 13 23 13 15 1 -21 -16 -45 -31 -45 -7 0 -13 -5 -13 -12 0 -6 -4 -15 -9
-20 -6 -5 -6 -2 -1 6 6 11 4 13 -11 6 -46 -19 -120 -17 -160 3 -47 24 -58 36
-71 77 -6 17 -16 29 -24 28 -8 -1 -39 -4 -69 -8 -80 -9 -83 -12 -64 -71 35
-104 99 -157 221 -181 72 -14 87 -14 156 0 74 15 143 50 132 66 -6 10 35 48
43 41 13 -11 44 64 49 120 4 44 1 72 -12 106 -35 93 -100 141 -245 184 -125
37 -170 69 -170 119 0 15 9 40 21 55 20 26 15 36 -9 16 -9 -7 -9 -7 -2 2 13
16 121 21 170 8 42 -11 80 -53 80 -89 0 -18 6 -21 48 -21 26 0 64 3 85 6 37 7
37 7 31 43 -15 83 -79 160 -159 190 -61 23 -165 33 -221 21z m249 -48 c55 -31
103 -90 112 -137 l5 -30 -12 30 c-39 94 -105 146 -209 165 l-54 9 54 -4 c34
-3 72 -15 104 -33z m-390 -44 c-53 -58 -69 -159 -39 -233 8 -19 13 -35 10 -35
-3 0 -12 16 -20 35 -19 46 -18 138 2 178 16 32 53 77 62 77 3 0 -4 -10 -15
-22z m264 -34 c-3 -3 -12 -4 -19 -1 -8 3 -5 6 6 6 11 1 17 -2 13 -5z m-175
-93 c-5 -46 18 -84 61 -102 15 -6 26 -14 23 -16 -8 -9 -63 27 -80 51 -20 31
-21 106 -2 106 1 0 0 -18 -2 -39z m287 -15 c-1 -17 -2 -16 -9 6 -4 14 -11 32
-15 40 -3 7 1 4 9 -6 9 -11 16 -29 15 -40z m-99 -131 c19 -7 28 -13 20 -13 -8
0 -31 6 -50 13 -19 7 -28 13 -20 13 8 0 31 -6 50 -13z m-259 -32 c13 -16 12
-17 -3 -4 -17 13 -22 21 -14 21 2 0 10 -8 17 -17z m401 -28 c21 -14 43 -35 49
-48 10 -18 7 -17 -17 7 -16 16 -42 37 -59 47 -16 11 -25 19 -20 19 6 0 27 -11
47 -25z m-255 -41 c-3 -3 -12 -4 -19 -1 -8 3 -5 6 6 6 11 1 17 -2 13 -5z m342
-88 c-1 -17 -2 -16 -9 6 -4 14 -11 32 -15 40 -3 7 1 4 9 -6 9 -11 16 -29 15
-40z m-130 -45 c0 -10 -4 -7 -10 8 -5 14 -13 30 -17 36 -4 6 1 2 11 -8 9 -11
17 -27 16 -36z m136 -46 c-3 -26 -8 -45 -11 -43 -2 3 -1 26 2 52 4 25 9 44 12
42 2 -3 1 -26 -3 -51z m-452 18 c-7 -2 -19 -2 -25 0 -7 3 -2 5 12 5 14 0 19
-2 13 -5z m-85 -10 c-43 -5 -46 -15 -24 -68 8 -19 13 -35 10 -35 -8 0 -34 68
-34 90 0 17 6 20 43 18 l42 -1 -37 -4z m124 -58 c11 -20 11 -20 -11 -1 -11 11
-21 26 -21 35 0 14 2 14 10 1 6 -8 16 -24 22 -35z m398 -13 c0 -5 -7 -17 -15
-28 -14 -18 -14 -17 -4 9 12 27 19 34 19 19z m-331 -28 c14 -12 -19 -1 -35 12
-18 14 -18 14 6 3 14 -6 27 -13 29 -15z m54 -11 c-7 -2 -21 -2 -30 0 -10 3 -4
5 12 5 17 0 24 -2 18 -5z m54 1 c-3 -3 -12 -4 -19 -1 -8 3 -5 6 6 6 11 1 17
-2 13 -5z m-232 -68 c6 -4 1 -4 -10 2 -11 6 -31 23 -45 39 l-25 28 35 -30 c19
-16 40 -34 45 -39z m315 -26 c-8 -5 -22 -9 -30 -9 -10 0 -8 3 5 9 27 12 43 12
25 0z m-220 -10 c18 -12 2 -12 -25 0 -13 6 -15 9 -5 9 8 0 22 -4 30 -9z m107
-16 c-3 -3 -12 -4 -19 -1 -8 3 -5 6 6 6 11 1 17 -2 13 -5z"/>
<path d="M5210 2131 l0 -431 80 0 80 0 2 298 c2 186 7 296 13 295 5 -1 11 -7
13 -15 2 -9 0 -8 -8 2 -32 42 11 -51 99 -215 l97 -180 62 -3 c54 -3 62 0 75
20 20 31 142 260 175 328 l27 55 3 -292 2 -293 80 0 80 0 0 425 0 425 -92 0
-93 0 -29 -53 c-15 -28 -71 -132 -123 -230 -63 -116 -99 -175 -106 -168 -5 5
-30 49 -56 98 -25 49 -77 148 -116 221 l-70 132 -82 0 c-45 0 -88 3 -97 6 -14
6 -16 -36 -16 -425z m240 308 c28 -55 47 -99 43 -96 -4 3 -28 46 -53 96 l-45
91 -82 0 -83 0 -3 -412 -2 -413 -3 418 -2 417 90 0 90 0 50 -101z m630 -309
l0 -410 -57 2 -58 2 53 3 52 4 0 400 0 399 -77 0 -78 0 -55 -106 c-30 -58 -59
-108 -64 -111 -5 -4 11 32 36 78 25 46 53 99 62 117 l17 32 84 0 85 0 0 -410z
m-514 93 c31 -60 64 -119 72 -133 l14 -25 -18 22 c-21 26 -138 243 -131 243 3
0 31 -48 63 -107z m217 62 c-3 -9 -8 -14 -10 -11 -3 3 -2 9 2 15 9 16 15 13 8
-4z m169 -373 c2 -105 0 -192 -4 -192 -5 0 -7 132 -6 293 2 293 6 259 10 -101z
m-72 308 c-17 -34 -33 -60 -35 -58 -3 2 10 32 28 65 17 34 33 60 35 58 2 -1
-11 -31 -28 -65z m-414 -63 c19 -38 34 -70 32 -72 -2 -2 -25 38 -51 88 -27 51
-41 83 -33 72 9 -10 32 -50 52 -88z m284 63 c-11 -22 -23 -40 -25 -40 -3 0 4
18 15 40 11 22 23 40 25 40 3 0 -4 -18 -15 -40z m-47 -85 c-3 -9 -8 -14 -10
-11 -3 3 -2 9 2 15 9 16 15 13 8 -4z m83 -94 c-26 -50 -48 -91 -51 -91 -3 0
16 43 42 95 26 52 49 93 51 91 2 -2 -17 -45 -42 -95z m-268 4 c-3 -3 -9 2 -12
12 -6 14 -5 15 5 6 7 -7 10 -15 7 -18z m22 -35 c6 -11 8 -20 6 -20 -3 0 -10 9
-16 20 -6 11 -8 20 -6 20 3 0 10 -9 16 -20z m40 -70 c6 -11 8 -20 6 -20 -3 0
-10 9 -16 20 -6 11 -8 20 -6 20 3 0 10 -9 16 -20z m-292 -217 c-10 -2 -26 -2
-35 0 -10 3 -2 5 17 5 19 0 27 -2 18 -5z"/>
<path d="M6553 2548 c-5 -7 -24 -49 -41 -93 -17 -44 -43 -111 -58 -150 -167
-432 -224 -583 -224 -596 0 -6 34 -9 86 -7 l86 3 37 100 36 100 170 0 170 0
36 -100 37 -100 91 -3 c50 -1 91 -1 91 0 0 2 -21 55 -46 118 -25 63 -65 165
-89 225 -23 61 -78 199 -120 308 l-78 197 -73 0 c-40 0 -79 2 -87 5 -7 3 -18
0 -24 -7z m223 -127 c24 -63 43 -115 41 -117 -2 -2 -24 47 -48 109 l-45 112
-79 3 -80 3 -19 -46 c-10 -25 -20 -44 -22 -42 -2 2 5 25 17 51 l20 47 85 -3
85 -3 45 -114z m-291 -96 c-21 -53 -39 -94 -41 -92 -2 2 13 47 33 100 21 53
39 94 41 92 2 -2 -13 -47 -33 -100z m119 -29 c-15 -42 -28 -75 -31 -73 -2 2 9
38 24 80 14 42 28 75 30 73 3 -2 -8 -38 -23 -80z m139 -196 c16 -35 16 -35 11
-5 -4 27 -3 28 5 7 21 -46 8 -52 -109 -52 -60 0 -111 3 -113 8 -3 4 20 76 51
161 l55 153 42 -118 c23 -66 49 -135 58 -154z m127 82 c23 -57 40 -106 38
-108 -2 -2 -20 38 -41 89 -45 114 -52 133 -44 127 3 -3 24 -52 47 -108z m-146
25 c7 -19 17 -45 20 -58 11 -37 -11 1 -29 51 -17 48 -11 53 9 7z m-313 -68
c-11 -24 -20 -41 -20 -37 -1 12 31 89 35 85 3 -2 -4 -24 -15 -48z m130 -16
c-12 -20 -14 -14 -5 12 4 9 9 14 11 11 3 -2 0 -13 -6 -23z m-160 -60 c-12 -20
-14 -14 -5 12 4 9 9 14 11 11 3 -2 0 -13 -6 -23z m563 -73 l7 -25 -14 25 c-8
14 -17 36 -21 50 l-7 25 14 -25 c8 -14 17 -36 21 -50z m-583 23 c-12 -20 -14
-14 -5 12 4 9 9 14 11 11 3 -2 0 -13 -6 -23z m302 20 c-23 -2 -64 -2 -90 0
-26 2 -7 3 42 3 50 0 71 -1 48 -3z m84 1 c-3 -3 -12 -4 -19 -1 -8 3 -5 6 6 6
11 1 17 -2 13 -5z m-416 -101 c-12 -20 -14 -14 -5 12 4 9 9 14 11 11 3 -2 0
-13 -6 -23z m655 -60 c-4 -4 -36 73 -35 85 0 4 9 -13 20 -37 11 -24 18 -46 15
-48z m-677 -2 c-6 -18 -13 -30 -15 -28 -2 2 1 18 7 36 6 18 13 30 15 28 2 -2
-1 -18 -7 -36z m540 -6 c0 -5 -4 -3 -9 5 -5 8 -9 22 -9 30 0 16 17 -16 18 -35z
m-415 -43 c-15 -40 -29 -71 -31 -69 -2 3 8 37 23 76 15 39 28 70 30 68 2 -2
-8 -36 -22 -75z m594 -40 c17 -40 26 -72 20 -70 -8 3 -58 128 -58 146 0 12 9
-7 38 -76z m-138 -27 c0 -5 -5 -3 -10 5 -5 8 -10 20 -10 25 0 6 5 3 10 -5 5
-8 10 -19 10 -25z m-626 -20 c3 -9 0 -15 -9 -15 -9 0 -12 6 -9 15 4 8 7 15 9
15 2 0 5 -7 9 -15z m136 -5 c0 -5 -5 -10 -11 -10 -5 0 -7 5 -4 10 3 6 8 10 11
10 2 0 4 -4 4 -10z m520 -6 c0 -2 -7 -4 -15 -4 -8 0 -15 4 -15 10 0 5 7 7 15
4 8 -4 15 -8 15 -10z m-587 -1 c-7 -2 -21 -2 -30 0 -10 3 -4 5 12 5 17 0 24
-2 18 -5z m640 0 c-7 -2 -19 -2 -25 0 -7 3 -2 5 12 5 14 0 19 -2 13 -5z"/>
<path d="M7924 2551 c-2 -2 -4 -37 -4 -78 l0 -73 125 0 125 0 0 -350 0 -350
85 0 85 0 0 350 0 350 120 0 120 0 0 75 0 74 -326 3 c-179 2 -328 1 -330 -1z
m644 -78 l-2 -68 -3 62 -4 63 -317 3 -317 2 323 3 322 2 -2 -67z m-313 -743
l65 0 3 338 2 337 3 -342 2 -341 -75 -4 -75 -3 2 345 3 345 2 -337 3 -338 65
0z"/>
<path d="M7180 2125 l0 -426 83 3 82 3 0 158 0 157 66 0 66 0 83 -152 c45 -84
86 -157 90 -161 4 -4 47 -6 97 -5 l91 3 -90 155 c-49 85 -93 155 -97 155 -5 0
-13 4 -18 9 -5 5 -3 6 5 2 10 -6 11 -1 7 21 -3 15 -2 22 1 16 7 -17 69 15 105
54 49 52 63 92 63 178 0 86 -14 126 -62 178 -44 46 -46 30 -3 -19 23 -26 41
-54 41 -63 0 -9 -7 -3 -16 14 -8 17 -28 44 -44 60 -16 17 -28 35 -27 40 1 6
-20 18 -48 27 -41 14 -89 17 -262 18 l-213 0 0 -425z m223 408 l-203 -3 0
-400 0 -399 53 -3 52 -3 -58 -5 -57 -5 0 413 0 412 208 -2 207 -3 -202 -2z
m262 -18 c39 -17 21 -18 -25 0 -19 7 -28 14 -20 14 8 0 29 -6 45 -14z m-338
-282 c-2 -32 -3 -6 -3 57 0 63 1 89 3 58 2 -32 2 -84 0 -115z m282 143 c52
-47 45 -151 -12 -187 -27 -17 -47 -19 -140 -17 l-108 3 -2 113 -2 114 121 -4
c103 -2 125 -6 143 -22z m188 -58 c-2 -13 -4 -5 -4 17 -1 22 1 32 4 23 2 -10
2 -28 0 -40z m-132 -6 c3 -21 1 -49 -5 -62 l-10 -25 5 27 c3 15 1 46 -4 68 -5
22 -5 38 -1 35 5 -3 11 -22 15 -43z m132 -84 c-3 -7 -5 -2 -5 12 0 14 2 19 5
13 2 -7 2 -19 0 -25z m-20 -55 c-8 -15 -26 -37 -38 -48 l-24 -20 20 25 c12 14
27 37 35 52 7 16 15 26 17 24 3 -2 -2 -17 -10 -33z m-156 7 c-13 -11 -28 -20
-35 -20 -6 0 3 9 19 19 39 25 46 25 16 1z m-63 -27 c-10 -2 -26 -2 -35 0 -10
3 -2 5 17 5 19 0 27 -2 18 -5z m-81 -9 c-3 -3 -12 -4 -19 -1 -8 3 -5 6 6 6 11
1 17 -2 13 -5z m-150 -326 c-1 -40 -3 -8 -3 72 0 80 2 112 3 73 2 -40 2 -106
0 -145z m193 162 c11 -22 18 -40 15 -40 -2 0 -14 18 -25 40 -11 22 -18 40 -15
40 2 0 14 -18 25 -40z m240 -165 l56 -100 -70 5 -71 5 58 3 c31 2 57 5 57 9 0
3 -25 49 -55 103 -30 54 -55 102 -55 106 0 5 6 0 12 -11 6 -11 37 -65 68 -120z
m-195 85 c9 -16 13 -30 11 -30 -3 0 -12 14 -21 30 -9 17 -13 30 -11 30 3 0 12
-13 21 -30z m33 -65 c-3 -3 -9 2 -12 12 -6 14 -5 15 5 6 7 -7 10 -15 7 -18z
m45 -77 c4 -10 4 -18 2 -18 -6 0 -35 56 -35 67 0 10 25 -27 33 -49z"/>
<path d="M4940 1775 c-8 -9 -8 -15 -2 -15 12 0 26 19 19 26 -2 2 -10 -2 -17
-11z"/>
<path d="M4557 1316 c-123 -34 -165 -167 -78 -250 32 -31 204 -98 230 -89 12
4 13 3 2 -5 -9 -7 -10 -12 -2 -16 6 -4 11 -18 11 -31 0 -31 -44 -65 -84 -65
-38 0 -92 32 -101 59 -5 17 -15 21 -48 21 -64 0 -74 -10 -55 -57 8 -21 19 -37
25 -36 6 1 19 -8 29 -20 l19 -22 -24 20 c-17 14 -23 16 -19 5 2 -8 24 -26 49
-40 36 -20 57 -24 119 -24 132 0 200 59 200 173 0 81 -42 119 -183 167 -84 29
-97 38 -97 74 0 30 15 40 60 40 16 0 32 5 35 10 3 6 14 10 23 9 16 0 16 -1 0
-7 -15 -6 -12 -10 13 -25 27 -15 30 -15 25 -2 -3 9 -2 13 4 10 6 -3 7 -17 4
-30 -7 -30 5 -36 60 -29 40 6 46 10 46 31 0 30 -18 65 -30 58 -5 -3 -12 0 -15
6 -4 6 -21 19 -39 30 -17 10 -26 19 -19 19 6 0 26 -12 44 -27 18 -15 30 -21
27 -13 -7 21 -86 58 -138 64 -25 3 -67 -1 -93 -8z m30 -12 c-3 -3 -12 -4 -19
-1 -8 3 -5 6 6 6 11 1 17 -2 13 -5z m101 -1 c-10 -2 -26 -2 -35 0 -10 3 -2 5
17 5 19 0 27 -2 18 -5z m-217 -67 c-9 -18 -18 -29 -19 -24 -4 8 24 58 32 58 2
0 -4 -15 -13 -34z m339 -42 c0 -13 -3 -24 -7 -24 -5 0 -8 13 -8 29 0 16 3 27
8 24 4 -2 7 -15 7 -29z m-258 -61 c5 -6 46 -24 91 -39 45 -14 96 -35 113 -45
39 -24 64 -75 63 -126 -1 -24 -3 -29 -6 -13 -2 14 -6 39 -8 56 -8 50 -48 80
-150 114 -105 35 -126 52 -123 101 l1 34 4 -35 c3 -19 9 -40 15 -47z m-79 -29
c9 -18 32 -38 56 -49 23 -10 39 -20 37 -22 -2 -3 -22 5 -44 16 -47 24 -72 59
-78 109 -3 34 -3 35 5 7 4 -16 15 -44 24 -61z m148 -92 c-7 -2 -18 1 -23 6 -8
8 -4 9 13 5 13 -4 18 -8 10 -11z m116 -94 c-3 -7 -5 -2 -5 12 0 14 2 19 5 13
2 -7 2 -19 0 -25z m-201 -20 l16 -33 -24 26 c-30 34 -78 38 -79 6 0 -21 -1
-21 -8 -2 -12 29 -5 35 39 35 35 0 42 -4 56 -32z m165 -38 c-16 -14 -37 -20
-65 -19 l-41 2 47 6 c27 4 53 12 60 19 7 7 14 12 18 12 3 -1 -6 -10 -19 -20z
m109 11 c0 -5 -9 -19 -20 -32 l-20 -24 17 32 c19 34 23 39 23 24z m-225 -19
c-3 -3 -11 0 -18 7 -9 10 -8 11 6 5 10 -3 15 -9 12 -12z m48 -79 c-7 -2 -19
-2 -25 0 -7 3 -2 5 12 5 14 0 19 -2 13 -5z"/>
<path d="M4986 1311 c-4 -5 6 -12 21 -14 l28 -4 -27 -2 -28 -1 -2 -187 c-1
-104 -1 -199 0 -211 2 -34 45 -86 89 -108 52 -26 175 -26 222 0 27 14 31 20
20 28 -10 7 -8 8 8 3 18 -5 27 2 50 36 l28 42 3 207 3 207 -23 5 c-13 2 -34 1
-48 -3 -20 -6 -17 -7 18 -8 l42 -1 0 -177 c0 -187 -7 -232 -41 -273 -18 -22
-18 -19 3 15 22 38 23 52 26 233 l4 192 -47 0 c-28 0 -44 4 -40 10 3 6 1 10
-4 10 -7 0 -11 -64 -11 -194 0 -180 -1 -195 -20 -219 -28 -35 -81 -45 -126
-23 -25 11 -34 12 -34 3 0 -6 -5 -4 -11 7 -7 11 -12 95 -12 220 l-1 201 -6
-190 -6 -190 -2 183 c-1 113 -6 182 -12 182 -5 0 -9 6 -7 13 3 15 -48 22 -57
8z m321 -128 c-3 -10 -5 -4 -5 12 0 17 2 24 5 18 2 -7 2 -21 0 -30z m0 -100
c-2 -16 -4 -3 -4 27 0 30 2 43 4 28 2 -16 2 -40 0 -55z m-15 -175 c-6 -6 -7 0
-4 19 5 21 7 23 10 9 2 -10 0 -22 -6 -28z m-250 -82 c12 -9 18 -16 12 -16 -19
0 -75 73 -74 97 1 4 10 -9 20 -29 11 -20 30 -44 42 -52z m219 44 c-13 -11 -31
-20 -40 -20 -9 0 0 8 19 19 46 24 50 24 21 1z m-76 -24 c11 -3 2 -3 -19 -1
-22 2 -44 9 -50 15 -7 7 -2 8 19 1 17 -5 39 -12 50 -15z m-75 -56 c8 -5 11
-10 5 -10 -5 0 -17 5 -25 10 -8 5 -10 10 -5 10 6 0 17 -5 25 -10z m78 -17
c-10 -2 -26 -2 -35 0 -10 3 -2 5 17 5 19 0 27 -2 18 -5z"/>
<path d="M5572 1046 l3 -271 53 -3 52 -3 0 183 0 183 63 -115 c57 -106 64
-115 94 -118 24 -2 35 2 46 20 30 48 107 201 107 212 -1 6 -12 -10 -26 -36
-13 -27 -27 -48 -29 -48 -3 0 8 27 25 60 17 33 32 60 34 60 2 0 4 -87 5 -192
1 -106 6 -197 10 -201 5 -5 30 -7 57 -5 l49 3 3 264 c1 170 -1 268 -8 275 -7
7 -10 5 -10 -7 0 -14 -10 -17 -54 -17 l-53 0 -32 -60 c-43 -80 -49 -77 -9 5
l32 65 56 0 c38 0 50 3 40 10 -8 5 -34 9 -58 8 l-43 -1 -60 -121 c-34 -66 -66
-127 -72 -134 -7 -9 -26 18 -74 110 -36 68 -69 128 -74 133 -6 6 -37 10 -70
11 l-59 0 2 -270z m121 252 c3 -10 -8 -12 -47 -8 l-51 4 45 7 c25 3 46 7 46 7
1 1 4 -4 7 -10z m-101 -346 c2 -94 0 -172 -4 -172 -5 0 -7 118 -6 263 2 263 6
232 10 -91z m505 -24 c-1 -68 -3 -15 -3 117 0 132 2 187 3 123 2 -64 2 -172 0
-240z m-331 231 c30 -61 54 -113 52 -115 -2 -2 -29 48 -61 111 -31 63 -55 115
-52 115 3 0 30 -50 61 -111z m-99 -286 c-1 -54 -3 -10 -3 97 0 107 2 151 3 98
2 -54 2 -142 0 -195z m231 242 c-12 -24 -23 -43 -26 -41 -4 5 36 86 43 86 3 0
-5 -20 -17 -45z m-183 4 c9 -17 15 -33 13 -35 -3 -2 -12 12 -21 31 -21 43 -13
47 8 4z m307 -217 c2 -67 0 -122 -4 -122 -5 0 -7 84 -6 188 2 187 5 165 10
-66z m-238 84 c20 -38 35 -70 33 -72 -2 -2 -23 33 -47 79 -23 45 -38 78 -33
72 6 -5 27 -41 47 -79z m130 16 c-8 -18 -18 -32 -20 -32 -3 0 -4 3 -2 8 20 41
32 61 35 59 2 -2 -4 -18 -13 -35z"/>
<path d="M6300 1043 l0 -273 55 0 55 0 -2 178 -2 177 -3 -172 c-3 -156 -5
-173 -21 -172 -10 0 -12 3 -4 6 9 3 12 52 13 191 0 103 3 180 6 172 3 -8 10
-19 15 -25 5 -5 35 -57 66 -115 36 -65 64 -106 75 -108 46 -9 61 6 117 118
l55 111 3 -173 c1 -95 6 -176 10 -180 4 -4 7 79 6 185 l0 192 6 -185 c3 -102
7 -186 8 -187 6 -8 22 -1 17 7 -3 6 1 7 9 4 9 -3 16 -10 16 -16 0 -5 10 -8 23
-6 20 3 22 8 20 68 -1 36 -2 157 -2 270 l-1 206 -59 2 c-38 2 -62 -2 -68 -10
-15 -19 -123 -225 -123 -235 0 -4 11 10 25 32 30 49 33 40 4 -9 -12 -20 -25
-34 -29 -31 -5 3 -12 0 -16 -6 -4 -6 -34 43 -70 112 -35 67 -69 128 -75 133
-6 6 7 -26 30 -71 50 -101 47 -110 -5 -13 l-36 70 -49 0 -49 0 -3 -257 -2
-258 -3 263 -2 262 52 0 c65 0 56 12 -12 14 l-50 2 0 -273z m530 257 c0 -5
-25 -10 -55 -10 l-54 0 -25 -52 c-13 -29 -31 -62 -40 -73 -8 -11 1 15 22 57
l37 77 55 4 c30 2 56 4 58 5 1 1 2 -2 2 -8z m-3 -72 c-2 -13 -4 -5 -4 17 -1
22 1 32 4 23 2 -10 2 -28 0 -40z m0 -95 c-3 -10 -5 -2 -5 17 0 19 2 27 5 18 2
-10 2 -26 0 -35z m-309 -18 c-3 -3 -9 2 -12 12 -6 14 -5 15 5 6 7 -7 10 -15 7
-18z m183 -8 c-10 -9 -11 -8 -5 6 3 10 9 15 12 12 3 -3 0 -11 -7 -18z m-222
-54 c17 -31 29 -58 27 -60 -1 -2 -17 24 -35 57 -18 33 -30 60 -27 60 2 0 18
-26 35 -57z m99 -11 c15 12 16 11 3 -4 -19 -25 -25 -23 -44 17 -24 50 -20 58
4 12 18 -34 22 -37 37 -25z m249 -59 c-2 -21 -4 -6 -4 32 0 39 2 55 4 38 2
-18 2 -50 0 -70z m-156 64 c-10 -9 -11 -8 -5 6 3 10 9 15 12 12 3 -3 0 -11 -7
-18z m-48 -92 c-9 -19 -20 -35 -25 -35 -4 0 2 16 13 35 12 19 23 35 25 35 2 0
-4 -16 -13 -35z m-88 -6 c9 -17 15 -33 13 -35 -3 -2 -12 12 -21 31 -21 43 -13
47 8 4z m292 -31 c-3 -8 -6 -5 -6 6 -1 11 2 17 5 13 3 -3 4 -12 1 -19z m0 -80
c-2 -13 -4 -3 -4 22 0 25 2 35 4 23 2 -13 2 -33 0 -45z m0 -50 c-3 -8 -6 -5
-6 6 -1 11 2 17 5 13 3 -3 4 -12 1 -19z m-470 -4 c-3 -3 -12 -4 -19 -1 -8 3
-5 6 6 6 11 1 17 -2 13 -5z"/>
<path d="M7197 1313 c-5 -8 -43 -104 -156 -398 -28 -71 -47 -133 -42 -138 4
-4 30 -7 57 -5 l49 3 25 67 25 68 108 0 c83 0 107 3 102 13 -4 6 3 1 14 -12
12 -13 21 -28 21 -35 -1 -6 -7 0 -15 14 -20 36 -17 14 8 -55 l22 -60 60 -3
c40 -1 55 1 46 7 -8 5 -16 16 -17 24 -1 8 -5 25 -8 38 -3 13 3 6 13 -16 43
-90 15 -6 -78 229 -70 178 -104 252 -117 257 -25 10 -112 11 -117 2z m50 -22
c-37 -6 -40 -8 -69 -84 -17 -42 -33 -76 -35 -74 -2 3 11 41 28 86 l32 81 41
-1 41 -2 -38 -6z m96 -44 c8 -23 18 -51 23 -62 4 -11 4 -17 0 -14 -10 9 -56
130 -46 124 4 -3 15 -24 23 -48z m-46 -150 c17 -45 32 -76 32 -70 1 7 -10 43
-24 79 -14 37 -24 69 -21 71 2 2 15 -27 29 -64 14 -37 28 -75 32 -84 6 -15 -3
-17 -76 -15 -58 1 -83 5 -85 14 -2 8 -1 8 3 1 3 -6 18 22 34 62 29 75 40 129
14 74 -16 -36 -19 -28 -5 11 15 38 27 22 67 -79z m-91 -13 c-8 -21 -15 -34
-15 -28 -1 15 20 76 25 71 2 -2 -2 -21 -10 -43z m-75 9 c-12 -20 -14 -14 -5
12 4 9 9 14 11 11 3 -2 0 -13 -6 -23z m303 -77 c20 -49 34 -91 32 -93 -4 -4
-76 171 -76 184 0 14 9 -6 44 -91z m-323 27 c-12 -20 -14 -14 -5 12 4 9 9 14
11 11 3 -2 0 -13 -6 -23z m-31 -80 c-11 -17 -11 -17 -6 0 3 10 6 24 7 30 0 9
2 9 5 0 3 -7 0 -20 -6 -30z m-24 -60 c-8 -15 -15 -25 -16 -21 0 12 23 58 27
54 3 -2 -2 -17 -11 -33z m141 21 c-3 -3 -12 -4 -19 -1 -8 3 -5 6 6 6 11 1 17
-2 13 -5z m141 -1 c-10 -2 -28 -2 -40 0 -13 2 -5 4 17 4 22 1 32 -1 23 -4z
m152 -48 c0 -5 -5 -3 -10 5 -5 8 -10 20 -10 25 0 6 5 3 10 -5 5 -8 10 -19 10
-25z m-364 -12 c-8 -15 -15 -25 -16 -21 0 12 23 58 27 54 3 -2 -2 -17 -11 -33z
m297 -45 c9 -21 14 -38 11 -38 -5 0 -34 64 -34 76 0 12 7 0 23 -38z m-403 -23
c0 -8 -4 -15 -10 -15 -5 0 -7 7 -4 15 4 8 8 15 10 15 2 0 4 -7 4 -15z"/>
<path d="M7652 1046 l3 -271 53 -3 52 -3 0 100 0 101 39 0 c22 0 46 3 55 6 9
3 16 1 16 -6 0 -6 -4 -8 -10 -5 -19 12 -9 -10 43 -100 l53 -90 57 -3 c31 -2
57 0 57 4 0 10 -81 154 -87 154 -3 0 -2 -7 1 -16 3 -9 2 -12 -5 -9 -6 4 -8 13
-5 21 3 8 0 26 -6 40 -10 22 -9 27 5 36 10 5 15 13 12 17 -2 5 4 16 15 26 42
38 49 134 13 194 l-15 26 20 -25 c42 -50 37 -147 -9 -196 -13 -13 -18 -24 -12
-24 13 0 36 28 51 63 31 73 -3 174 -71 209 -35 17 -62 21 -184 23 l-143 3 2
-272z m43 -257 c17 -7 16 -8 -7 -8 l-28 -1 2 263 2 262 6 -254 c5 -242 6 -254
25 -262z m63 504 c-16 -2 -40 -2 -55 0 -16 2 -3 4 27 4 30 0 43 -2 28 -4z
m160 0 c-16 -2 -40 -2 -55 0 -16 2 -3 4 27 4 30 0 43 -2 28 -4z m57 -13 c3 -6
-1 -7 -9 -4 -18 7 -21 14 -7 14 6 0 13 -4 16 -10z m-228 -183 c-2 -23 -3 -1
-3 48 0 50 1 68 3 42 2 -26 2 -67 0 -90z m158 111 c29 -13 38 -37 32 -92 -6
-54 -26 -66 -111 -64 l-71 1 77 6 c46 4 82 12 90 20 11 12 10 13 -7 5 -11 -4
-50 -10 -87 -12 l-68 -4 0 76 0 76 60 0 c32 0 71 -5 85 -12z m55 -32 c5 -15 5
-35 -1 -53 l-9 -28 4 29 c2 17 0 40 -5 53 -5 13 -6 23 -4 23 3 0 10 -11 15
-24z m-213 -348 c-2 -29 -3 -6 -3 52 0 58 1 81 3 53 2 -29 2 -77 0 -105z m211
117 c-3 -3 -9 2 -12 12 -6 14 -5 15 5 6 7 -7 10 -15 7 -18z m-63 -25 c9 -16
13 -30 11 -30 -3 0 -12 14 -21 30 -9 17 -13 30 -11 30 3 0 12 -13 21 -30z
m140 -92 c15 -27 23 -48 18 -47 -4 0 -21 26 -37 57 -32 66 -22 59 19 -10z
m-81 -10 c18 -36 19 -41 7 -34 -9 6 -33 66 -26 66 2 0 11 -14 19 -32z"/>
<path d="M8130 1307 c0 -5 41 -84 91 -175 l90 -166 -2 -96 -3 -95 52 -3 52 -3
0 98 0 98 58 105 c32 58 75 135 96 173 33 59 36 67 19 69 -64 5 -80 5 -93 -3
-9 -4 -39 -52 -68 -107 -52 -99 -65 -133 -37 -96 8 10 14 15 14 9 0 -5 -6 -18
-13 -28 -12 -16 -14 -16 -20 -2 -3 9 -10 14 -15 10 -6 -3 -15 3 -20 14 -16 30
-12 40 4 11 8 -14 15 -20 15 -15 0 6 -23 56 -52 112 l-53 102 -57 -1 c-32 0
-58 -5 -58 -11z m129 -38 c12 -35 4 -39 -9 -4 -8 21 -16 25 -50 25 l-40 0 25
-50 c14 -27 23 -50 20 -50 -2 0 -18 26 -34 58 l-29 57 53 -3 c49 -3 55 -6 64
-33z m314 11 c-3 -11 -9 -20 -14 -20 -5 0 -6 7 -3 15 9 22 -55 20 -73 -2 -13
-16 -13 -16 -3 5 9 18 19 22 54 22 39 0 44 -2 39 -20z m-30 -47 c-9 -24 -44
-83 -49 -83 -2 0 7 23 21 50 25 49 41 68 28 33z m-243 -43 c11 -22 18 -40 15
-40 -2 0 -14 18 -25 40 -11 22 -18 40 -15 40 2 0 14 -18 25 -40z m130 -18 c0
-5 -7 -17 -15 -28 -14 -18 -14 -17 -4 9 12 27 19 34 19 19z m-185 -42 c9 -16
13 -30 11 -30 -3 0 -12 14 -21 30 -9 17 -13 30 -11 30 3 0 12 -13 21 -30z
m210 -60 c-14 -27 -28 -50 -30 -50 -3 0 6 23 20 50 14 28 28 50 30 50 3 0 -6
-22 -20 -50z m-165 -25 c0 -5 -5 -3 -10 5 -5 8 -10 20 -10 25 0 6 5 3 10 -5 5
-8 10 -19 10 -25z m123 -50 c-3 -9 -8 -14 -10 -11 -3 3 -2 9 2 15 9 16 15 13
8 -4z m-86 -167 c-2 -29 -3 -6 -3 52 0 58 1 81 3 53 2 -29 2 -77 0 -105z m70
15 c-2 -16 -4 -5 -4 22 0 28 2 40 4 28 2 -13 2 -35 0 -50z"/>
<path d="M4964 1120 c0 -107 2 -151 3 -97 2 53 2 141 0 195 -1 53 -3 9 -3 -98z"/>
<path d="M5080 911 c0 -5 5 -13 10 -16 6 -3 10 -2 10 4 0 5 -4 13 -10 16 -5 3
-10 2 -10 -4z"/>
</g>
</svg>
